<svg xmlns="http://www.w3.org/2000/svg" version="1.1" xmlns:xlink="http://www.w3.org/1999/xlink" xmlns:svgjs="http://svgjs.com/svgjs" width="1440" height="560" preserveAspectRatio="none" viewBox="0 0 1440 560"><g mask="url(&quot;#SvgjsMask1131&quot;)" fill="none"><rect width="1440" height="560" x="0" y="0" fill="rgba(248, 85, 85, 1)"></rect><path d="M0,496.985C101.803,499.645,215.916,523.837,297.356,462.694C378.308,401.918,374.805,282.274,411.597,187.97C445.902,100.041,498.102,21.239,506.273,-72.791C516.025,-185.009,524.969,-307.084,462.778,-401C398.361,-498.279,286.389,-568.103,170.334,-580.104C59.362,-591.579,-39.872,-519.662,-135.923,-462.91C-212.811,-417.48,-271.686,-353.568,-328.992,-285.073C-385.31,-217.759,-452.814,-153.756,-467.032,-67.149C-481.356,20.102,-435.374,102.043,-406.251,185.528C-374.03,277.895,-365.169,387.89,-287.533,447.41C-208.752,507.808,-99.235,494.392,0,496.985" fill="#f62222"></path><path d="M1440 934.794C1515.286 934.925 1592.924 936.967 1658.54 900.0550000000001 1726.08 862.06 1773.4180000000001 797.421 1807.721 727.933 1842.778 656.917 1871.772 577.795 1855.931 500.198 1840.402 424.13300000000004 1783.106 364.026 1723.32 314.502 1669.858 270.216 1600.283 259.711 1535.497 234.76600000000002 1463.881 207.19099999999997 1394.561 133.51999999999998 1322.613 160.21499999999997 1249.598 187.30599999999998 1242.749 288.517 1205.825 357.086 1177.565 409.565 1137.605 456.344 1131.237 515.607 1124.987 573.772 1157.349 626.005 1170.809 682.936 1188.212 756.546 1166.716 847.6179999999999 1221.949 899.2950000000001 1276.835 950.6469999999999 1364.837 934.663 1440 934.794" fill="#fa8888"></path></g><defs><mask id="SvgjsMask1131"><rect width="1440" height="560" fill="#ffffff"></rect></mask></defs></svg>